<svg width="18" height="15" viewBox="0 0 18 15" fill="none" xmlns="http://www.w3.org/2000/svg">
<path d="M15.5898 0.75C15.2617 0.75 11.3516 0.941406 9 2.30859C6.62109 0.941406 2.71094 0.75 2.38281 0.75C1.20703 0.75 0.25 1.70703 0.25 2.85547V11.4414C0.25 12.5352 1.125 13.4648 2.24609 13.5195C3.25781 13.5742 5.77344 13.793 7.38672 14.5859C7.60547 14.6953 7.85156 14.75 8.09766 14.75H9.875C10.1211 14.75 10.3672 14.6953 10.5859 14.5859C12.1992 13.793 14.7148 13.5742 15.7266 13.5195C16.8477 13.4648 17.75 12.5352 17.75 11.4414V2.85547C17.75 1.70703 16.7656 0.75 15.5898 0.75ZM8.34375 12.7539C8.34375 13.0547 8.04297 13.2734 7.74219 13.1641C5.99219 12.4805 3.53125 12.2891 2.32812 12.207C1.89062 12.1797 1.5625 11.8516 1.5625 11.4414V2.85547C1.5625 2.41797 1.91797 2.0625 2.38281 2.0625C2.90234 2.08984 5.82812 2.28125 7.79688 3.18359C8.125 3.32031 8.31641 3.64844 8.31641 3.97656L8.34375 6.875V12.7539ZM16.4375 11.4414C16.4375 11.8516 16.082 12.1797 15.6445 12.207C14.4414 12.2891 11.9805 12.4805 10.2305 13.1641C9.92969 13.2734 9.65625 13.0547 9.65625 12.7539V6.875V3.97656C9.65625 3.64844 9.84766 3.32031 10.1758 3.18359C12.1445 2.28125 15.0703 2.08984 15.5898 2.0625C16.0547 2.0625 16.4375 2.41797 16.4375 2.85547V11.4414Z" fill="black"/>
</svg>
