<svg width="51" height="50" viewBox="0 0 51 50" fill="none" xmlns="http://www.w3.org/2000/svg">
<g filter="url(#filter0_d)">
<path d="M25.8429 38C34.6795 38 41.8429 30.8366 41.8429 22C41.8429 13.1634 34.6795 6 25.8429 6C17.0064 6 9.84293 13.1634 9.84293 22C9.84293 30.8366 17.0064 38 25.8429 38Z" fill="url(#paint0_linear)"/>
<path d="M41.3429 22C41.3429 30.5604 34.4033 37.5 25.8429 37.5C17.2825 37.5 10.3429 30.5604 10.3429 22C10.3429 13.4396 17.2825 6.5 25.8429 6.5C34.4033 6.5 41.3429 13.4396 41.3429 22Z" stroke="white"/>
</g>
<path d="M28.2266 16.5593L27.7605 17.0253C27.6256 17.1611 27.4599 17.2621 27.2774 17.3198C27.0949 17.3775 26.9012 17.3902 26.7128 17.3567C25.9577 17.2168 25.1798 17.2628 24.4464 17.4905C23.7129 17.7183 23.0459 18.1211 22.5028 18.6642C21.9598 19.2072 21.557 19.8742 21.3292 20.6077C21.1014 21.3411 21.0555 22.119 21.1954 22.8741C21.2292 23.0623 21.2169 23.2558 21.1593 23.4381C21.1018 23.6204 21.0009 23.786 20.8652 23.9207L20.398 24.3879C20.2474 24.5385 20.0592 24.646 19.853 24.6993C19.6468 24.7525 19.4301 24.7495 19.2254 24.6906C19.0208 24.6317 18.8356 24.5191 18.6893 24.3644C18.5429 24.2097 18.4406 24.0186 18.3931 23.811C18.0853 22.5337 18.1106 21.1987 18.4667 19.934C18.8228 18.6693 19.4977 17.5172 20.4268 16.5881C21.3559 15.6591 22.5079 14.9841 23.7727 14.6281C25.0374 14.272 26.3723 14.2466 27.6497 14.5545C27.8573 14.602 28.0484 14.7042 28.203 14.8506C28.3577 14.997 28.4704 15.1821 28.5293 15.3868C28.5882 15.5914 28.5912 15.8081 28.5379 16.0143C28.4847 16.2205 28.3772 16.4087 28.2266 16.5593Z" fill="white"/>
<path d="M31.2958 19.6033C31.4439 19.4551 31.6284 19.3485 31.8307 19.2943C32.0331 19.2401 32.2462 19.2402 32.4485 19.2946C32.6508 19.349 32.8353 19.4557 32.9832 19.6041C33.1311 19.7525 33.2373 19.9372 33.2911 20.1397C33.6142 21.4263 33.5982 22.7748 33.2448 24.0534C32.8913 25.332 32.2124 26.4972 31.2743 27.4352C30.3362 28.3731 29.1709 29.0519 27.8922 29.4052C26.6136 29.7585 25.2651 29.7743 23.9785 29.451C23.7761 29.3973 23.5913 29.2911 23.443 29.1431C23.2946 28.9952 23.1878 28.8108 23.1334 28.6085C23.0791 28.4062 23.079 28.1931 23.1332 27.9907C23.1874 27.7883 23.2939 27.6038 23.4422 27.4557L23.9082 26.9909C24.0437 26.8542 24.2105 26.7528 24.3942 26.6955C24.5778 26.6381 24.7727 26.6266 24.9619 26.6619C25.7208 26.8067 26.5036 26.7636 27.242 26.5364C27.9804 26.3092 28.652 25.9048 29.1982 25.3585C29.7445 24.8121 30.1487 24.1404 30.3758 23.4019C30.6028 22.6635 30.6457 21.8807 30.5008 21.1218C30.4658 20.9326 30.4776 20.7377 30.5352 20.554C30.5927 20.3704 30.6942 20.2036 30.8309 20.0682L31.2958 19.6033Z" fill="white"/>
<path d="M32.173 15.1419L32.701 15.6699C33.117 16.0871 33.1575 16.7224 32.7892 17.0907L20.9331 28.9468C20.5648 29.314 19.9295 29.2746 19.5123 28.8574L18.9843 28.3294C18.5671 27.9134 18.5278 27.277 18.8961 26.9086L30.7522 15.0525C31.1193 14.6854 31.7558 14.7247 32.173 15.1419Z" fill="white"/>
<path d="M18.0381 13.8429L17.6858 14.1952C17.2203 14.6606 17.2203 15.4153 17.6858 15.8808L18.0381 16.2331C18.5035 16.6986 19.2582 16.6986 19.7237 16.2331L20.076 15.8808C20.5415 15.4153 20.5415 14.6606 20.076 14.1952L19.7237 13.8429C19.2582 13.3774 18.5035 13.3774 18.0381 13.8429Z" fill="white"/>
<path d="M31.9621 27.7669L31.6098 28.1192C31.1443 28.5847 31.1443 29.3393 31.6098 29.8048L31.9621 30.1571C32.4275 30.6226 33.1822 30.6226 33.6477 30.1571L34 29.8048C34.4655 29.3393 34.4655 28.5847 34 28.1192L33.6477 27.7669C33.1822 27.3014 32.4275 27.3014 31.9621 27.7669Z" fill="white"/>
<defs>
<filter id="filter0_d" x="0.842934" y="0" width="50" height="50" filterUnits="userSpaceOnUse" color-interpolation-filters="sRGB">
<feFlood flood-opacity="0" result="BackgroundImageFix"/>
<feColorMatrix in="SourceAlpha" type="matrix" values="0 0 0 0 0 0 0 0 0 0 0 0 0 0 0 0 0 0 127 0"/>
<feOffset dy="3"/>
<feGaussianBlur stdDeviation="4.5"/>
<feColorMatrix type="matrix" values="0 0 0 0 0.225 0 0 0 0 0.225 0 0 0 0 0.225 0 0 0 0.1 0"/>
<feBlend mode="normal" in2="BackgroundImageFix" result="effect1_dropShadow"/>
<feBlend mode="normal" in="SourceGraphic" in2="effect1_dropShadow" result="shape"/>
</filter>
<linearGradient id="paint0_linear" x1="8.09925" y1="33.5345" x2="37.3779" y2="4.25578" gradientUnits="userSpaceOnUse">
<stop stop-color="#662D91"/>
<stop offset="1" stop-color="#EE2A7B"/>
</linearGradient>
</defs>
</svg>
