<svg width="24" height="24" viewBox="0 0 24 24" fill="none" xmlns="http://www.w3.org/2000/svg">
<path d="M15.452 4.20088L14.7214 4.78535C14.283 5.22371 13.8447 5.36983 13.2602 5.22371C11.2145 4.78535 8.87662 5.51595 7.26931 7.12325C5.66201 8.73056 5.07753 11.0685 5.36976 13.1141C5.51588 13.6986 5.22365 14.2831 4.93141 14.5753L4.20082 15.3059C3.3241 16.1826 1.7168 15.7443 1.27844 14.4292C0.40173 10.7762 1.42456 6.97713 4.20082 4.05476C6.97707 1.2785 10.9223 0.255673 14.5752 1.13238C15.8903 1.57074 16.3287 3.17805 15.452 4.20088Z" fill="#CCCCCC"/>
<path d="M19.8357 8.58442C20.7124 7.70771 22.3197 8.14607 22.6119 9.31502C23.4886 12.968 22.6119 16.9132 19.6896 19.6894C16.9133 22.4657 12.822 23.4885 9.31512 22.6118C8.00005 22.3196 7.5617 20.7123 8.58453 19.8356L9.31512 19.105C9.75348 18.6666 10.338 18.5205 10.7763 18.6666C12.9681 19.105 15.1599 18.5205 16.7672 16.7671C18.3745 15.1598 18.959 12.8219 18.6667 10.7762C18.5206 10.1917 18.8128 9.60725 19.1051 9.31502L19.8357 8.58442Z" fill="#CCCCCC"/>
<path d="M21.0043 2.15524L21.7349 2.88583C22.3193 3.47031 22.3193 4.34702 21.881 4.9315L4.93122 21.8813C4.34675 22.4657 3.47004 22.3196 2.88556 21.7351L2.15497 21.0046C1.5705 20.4201 1.5705 19.5434 2.15497 18.9589L18.9586 2.00912C19.5431 1.57077 20.4198 1.57077 21.0043 2.15524Z" fill="#CCCCCC"/>
<path d="M3.47032 3.47032C2.73973 4.20091 1.42466 4.20091 0.547945 3.47032C-0.182648 2.73973 -0.182648 1.42466 0.547945 0.547945C1.27854 -0.182648 2.59361 -0.182648 3.47032 0.547945C4.34703 1.42466 4.34703 2.73973 3.47032 3.47032Z" fill="#CCCCCC"/>
<path d="M23.3426 23.3425C22.612 24.073 21.297 24.073 20.4203 23.3425C19.6897 22.6119 19.6897 21.2968 20.4203 20.4201C21.1509 19.6895 22.4659 19.6895 23.3426 20.4201C24.2193 21.2968 24.2193 22.6119 23.3426 23.3425Z" fill="#CCCCCC"/>
</svg>
