<svg width="24" height="24" viewBox="0 0 24 24" fill="none" xmlns="http://www.w3.org/2000/svg">
<path d="M15.3721 4.32236L14.7162 4.97828C14.3294 5.36511 13.7744 5.55011 13.2362 5.4492C11.1507 5.06238 8.91384 5.68466 7.29926 7.29924C5.68468 8.91381 5.0624 11.1507 5.44922 13.2362C5.55014 13.7744 5.36513 14.3294 4.97831 14.7162L4.32239 15.3721C3.38055 16.314 1.79961 15.843 1.49688 14.5648C0.639134 11.0161 1.59779 7.13105 4.35602 4.37282C7.13107 1.59776 11.0161 0.63911 14.548 1.49685C15.8431 1.79959 16.2972 3.39734 15.3721 4.32236Z" fill="url(#paint0_linear)"/>
<path d="M19.6941 8.62791C20.6023 7.71971 22.2001 8.12336 22.5028 9.38474C23.3942 12.9503 22.4524 16.8858 19.6605 19.6777C16.8686 22.4695 12.9331 23.4114 9.36757 22.52C8.10618 22.2004 7.70254 20.6195 8.61074 19.7113L9.26666 19.0554C9.65348 18.6686 10.2085 18.4836 10.7467 18.5845C12.849 18.9881 15.1027 18.3658 16.7173 16.7512C18.3487 15.1199 18.9541 12.8662 18.5505 10.7807C18.4496 10.2425 18.6346 9.68748 19.0214 9.30065L19.6941 8.62791Z" fill="url(#paint1_linear)"/>
<path d="M20.9388 2.321L21.6789 3.06101C22.2675 3.64966 22.318 4.54104 21.7966 5.06242L5.06219 21.7968C4.54081 22.3182 3.64943 22.2677 3.06078 21.6791L2.32077 20.9391C1.73212 20.3504 1.68167 19.4591 2.20304 18.9377L18.9374 2.20327C19.442 1.6819 20.3502 1.73235 20.9388 2.321Z" fill="url(#paint2_linear)"/>
<path d="M3.86806 3.36372L3.36351 3.86828C2.70759 4.5242 1.64802 4.5242 0.992102 3.86828L0.487547 3.36372C-0.168375 2.7078 -0.168375 1.64824 0.487547 0.992315L0.992102 0.48776C1.64802 -0.168161 2.70759 -0.168161 3.36351 0.48776L3.86806 0.992315C4.52399 1.64824 4.52399 2.7078 3.86806 3.36372Z" fill="url(#paint3_linear)"/>
<path d="M23.5124 23.0077L23.0078 23.5122C22.3519 24.1682 21.2923 24.1682 20.6364 23.5122L20.1318 23.0077C19.4759 22.3518 19.4759 21.2922 20.1318 20.6363L20.6364 20.1317C21.2923 19.4758 22.3519 19.4758 23.0078 20.1317L23.5124 20.6363C24.1683 21.2922 24.1683 22.3518 23.5124 23.0077Z" fill="url(#paint4_linear)"/>
<defs>
<linearGradient id="paint0_linear" x1="0.391666" y1="13.8207" x2="13.8136" y2="0.398742" gradientUnits="userSpaceOnUse">
<stop stop-color="#662D91"/>
<stop offset="1" stop-color="#EE2A7B"/>
</linearGradient>
<linearGradient id="paint1_linear" x1="10.1757" y1="23.6558" x2="23.6483" y2="10.1831" gradientUnits="userSpaceOnUse">
<stop stop-color="#662D91"/>
<stop offset="1" stop-color="#EE2A7B"/>
</linearGradient>
<linearGradient id="paint2_linear" x1="2.69817" y1="21.3096" x2="21.3071" y2="2.70069" gradientUnits="userSpaceOnUse">
<stop stop-color="#662D91"/>
<stop offset="1" stop-color="#EE2A7B"/>
</linearGradient>
<linearGradient id="paint3_linear" x1="0.74114" y1="3.61891" x2="3.61642" y2="0.743636" gradientUnits="userSpaceOnUse">
<stop stop-color="#662D91"/>
<stop offset="1" stop-color="#EE2A7B"/>
</linearGradient>
<linearGradient id="paint4_linear" x1="20.3891" y1="23.2666" x2="23.2644" y2="20.3913" gradientUnits="userSpaceOnUse">
<stop stop-color="#662D91"/>
<stop offset="1" stop-color="#EE2A7B"/>
</linearGradient>
</defs>
</svg>
