<svg width="13" height="13" viewBox="0 0 13 13" fill="none" xmlns="http://www.w3.org/2000/svg">
<path d="M11.3125 0.625H1.6875C0.949219 0.625 0.375 1.22656 0.375 1.9375V11.5625C0.375 12.3008 0.949219 12.875 1.6875 12.875H11.3125C12.0234 12.875 12.625 12.3008 12.625 11.5625V1.9375C12.625 1.22656 12.0234 0.625 11.3125 0.625ZM11.3125 11.5625H1.6875V1.9375H11.3125V11.5625ZM3.65625 10.25H4.09375C4.3125 10.25 4.53125 10.0586 4.53125 9.8125V6.3125C4.53125 6.09375 4.3125 5.875 4.09375 5.875H3.65625C3.41016 5.875 3.21875 6.09375 3.21875 6.3125V9.8125C3.21875 10.0586 3.41016 10.25 3.65625 10.25ZM6.28125 10.25H6.71875C6.9375 10.25 7.15625 10.0586 7.15625 9.8125V3.6875C7.15625 3.46875 6.9375 3.25 6.71875 3.25H6.28125C6.03516 3.25 5.84375 3.46875 5.84375 3.6875V9.8125C5.84375 10.0586 6.03516 10.25 6.28125 10.25ZM8.90625 10.25H9.34375C9.5625 10.25 9.78125 10.0586 9.78125 9.8125V8.0625C9.78125 7.84375 9.5625 7.625 9.34375 7.625H8.90625C8.66016 7.625 8.46875 7.84375 8.46875 8.0625V9.8125C8.46875 10.0586 8.66016 10.25 8.90625 10.25Z" fill="black"/>
</svg>
